# xmcd
#
# Track frame offsets:
#	150
#	21110
#	35960
#	62550
#	96220
#	121035
#	138925
#	178040
#	200400
#	211710
#
# Disc length: 3210 seconds
#
# Revision: 1
# Processed by: cddbd v1.5.1PL2 Copyright (c) Steve Scherf et al.
# Submitted via: EasyCDDAExtractor 8.0.2.1
#
DISCID=860c880a
DTITLE=Dio - Woodlands Pavilion Houston 16-08-03 
DYEAR=2003
DGENRE=Hard Rock
TTITLE0=Killing The Dragon
TTITLE1=The Last In Line
TTITLE2=Stargazer
TTITLE3=Stand Up And Shout - Drum Solo
TTITLE4=Rock and Roll
TTITLE5=The Mob Rules
TTITLE6=Dream Evil
TTITLE7=Rainbow In The Dark
TTITLE8=Holy Diver
TTITLE9=Heaven and Hell
EXTD=
EXTT0=
EXTT1=
EXTT2=
EXTT3=
EXTT4=
EXTT5=
EXTT6=
EXTT7=
EXTT8=
EXTT9=
PLAYORDER=
